<?xml version="1.0" standalone="no"?><!DOCTYPE svg PUBLIC "-//W3C//DTD SVG 1.1//EN" "http://www.w3.org/Graphics/SVG/1.1/DTD/svg11.dtd"><svg t="1768732346322" class="icon" viewBox="0 0 1024 1024" version="1.1" xmlns="http://www.w3.org/2000/svg" p-id="9271" data-spm-anchor-id="a313x.search_index.0.i16.645e3a81YrDGGI" xmlns:xlink="http://www.w3.org/1999/xlink" width="32" height="32"><path d="M931.478515 232.034379L544.789707 8.771978a65.474989 65.474989 0 0 0-65.474988 0l-386.375531 223.262401A65.474989 65.474989 0 0 0 59.836203 288.737599v446.524802a65.474989 65.474989 0 0 0 32.685282 56.70322l386.37553 223.262401a65.474989 65.474989 0 0 0 65.474989 0l386.375531-223.262401a65.474989 65.474989 0 0 0 32.685281-56.70322V288.737599a65.474989 65.474989 0 0 0-31.954301-56.70322zM703.099249 715.630347a34.147243 34.147243 0 0 1-8.667343 24.957771 33.20741 33.20741 0 0 1-25.271048 8.98062h-17.961241a31.327746 31.327746 0 0 1-34.042817-33.938391V546.356094H406.8432v169.274253a34.564946 34.564946 0 0 1-8.667343 24.957771 33.20741 33.20741 0 0 1-25.271048 8.98062h-17.961241A31.327746 31.327746 0 0 1 320.900751 715.630347v-407.260694a33.625114 33.625114 0 0 1 8.98062-25.271049 34.147243 34.147243 0 0 1 25.062197-8.667342H373.113661a33.938391 33.938391 0 0 1 25.271048 8.667342 34.356094 34.356094 0 0 1 8.667343 25.271049v154.550212h210.104748v-154.550212a33.625114 33.625114 0 0 1 8.98062-25.271049 34.356094 34.356094 0 0 1 25.062197-8.667342h17.961241a30.387913 30.387913 0 0 1 33.938391 33.938391z" fill="#465cff" p-id="9272" data-spm-anchor-id="a313x.search_index.0.i13.645e3a81YrDGGI" class=""></path></svg>