<?xml version="1.0" standalone="no"?><!DOCTYPE svg PUBLIC "-//W3C//DTD SVG 1.1//EN" "http://www.w3.org/Graphics/SVG/1.1/DTD/svg11.dtd"><svg t="1756614726836" class="icon" viewBox="0 0 1024 1024" version="1.1" xmlns="http://www.w3.org/2000/svg" p-id="160015" xmlns:xlink="http://www.w3.org/1999/xlink" width="32" height="32"><path d="M645.632 64c16.896 0 33.28 6.656 45.056 18.944l186.368 186.368c11.776 11.776 18.944 28.16 18.944 45.056v517.632c0 70.656-57.344 128-128 128H256c-70.656 0-128-57.344-128-128v-640c0-70.656 57.344-128 128-128h389.632z m-3.584 64H256c-32.256 0-59.904 24.064-63.488 56.32l-0.512 7.68v640c0 32.256 24.064 59.904 56.32 63.488l7.68 0.512h512c32.256 0 59.904-24.064 63.488-56.32l0.512-7.68v-512h-61.952c-67.072 0-122.368-51.712-127.488-118.272l-0.512-9.728V128z m64 60.416v3.584c0 32.256 24.064 59.904 56.32 63.488l7.68 0.512h3.584l-67.584-67.584z" p-id="160016"></path><path d="M647.168 433.664H547.84c-13.312 0-23.552-8.704-25.088-21.504-1.536-12.288 5.632-24.064 17.408-27.648 3.584-1.024 7.68-1.024 11.776-1.024h145.92c4.608 0 9.728-0.512 14.336 0 10.24 2.048 17.408 7.68 20.48 17.92 3.072 9.728 0 18.432-7.168 25.6l-112.64 112.64c-1.024 1.024-2.048 2.56-3.584 3.584 2.56 1.536 5.12 1.024 7.168 1.024h92.16c12.8 0 23.04 8.704 24.576 20.992 2.048 11.776-5.632 23.552-16.896 27.648-4.096 1.536-8.704 1.536-12.8 1.536h-145.92c-5.12 0-9.728 0.512-14.848-0.512-18.432-3.584-26.624-25.088-15.36-39.936 1.536-2.048 3.584-4.096 5.632-5.632l111.616-112.128c0.512 0 1.024-0.512 2.56-2.56zM440.832 780.8c18.432 0 35.328-0.512 51.712 0 20.48 0.512 33.28 20.48 23.552 37.888-4.608 9.216-12.8 13.824-23.04 13.824H377.856c-11.264 0-20.48-5.632-24.064-15.872-4.096-10.752-2.048-20.48 6.144-28.672L424.96 722.944c1.536-1.536 3.072-3.584 5.12-5.12-2.048-1.536-4.096-1.024-5.632-1.024H378.88c-14.848 0-26.112-10.752-26.624-24.576-0.512-14.336 9.216-25.088 24.064-27.136 2.56-0.512 5.12-0.512 7.68-0.512 35.84 0 72.192 0 108.032-0.512 11.776 0 21.504 6.144 25.6 15.872 4.096 10.24 1.536 21.504-6.656 30.208l-66.048 66.048c-1.024 1.536-2.048 2.56-4.096 4.608zM366.08 560.128h39.936c15.872 0.512 25.6 15.872 18.432 29.696-3.584 7.168-9.728 10.752-17.92 10.752H317.44c-8.704 0-15.872-4.608-18.944-12.288-3.072-8.192-1.536-15.872 4.608-22.016l50.176-50.176 4.096-4.096c-1.536-1.536-3.072-1.024-4.608-1.024h-34.816c-11.264 0-19.968-8.192-20.48-18.944-0.512-10.752 7.168-19.456 18.432-20.992 2.048 0 4.096-0.512 6.144-0.512h83.456c9.216 0 16.896 4.608 19.968 12.288 3.584 7.68 1.536 16.896-5.12 23.04-16.896 16.896-33.792 33.792-51.2 50.688-1.024 1.024-1.536 2.048-3.072 3.584z" p-id="160017"></path></svg>