<?xml version="1.0" standalone="no"?><!DOCTYPE svg PUBLIC "-//W3C//DTD SVG 1.1//EN" "http://www.w3.org/Graphics/SVG/1.1/DTD/svg11.dtd"><svg t="1756614705783" class="icon" viewBox="0 0 1024 1024" version="1.1" xmlns="http://www.w3.org/2000/svg" p-id="158906" xmlns:xlink="http://www.w3.org/1999/xlink" width="32" height="32"><path d="M912.384 273.408c-84.48-124.928-224.768-199.68-375.296-199.68-249.344 0-452.608 202.752-452.608 452.608 0 186.368 117.248 356.352 291.328 422.912 3.584 1.536 7.68 2.048 11.264 2.048 13.312 0 25.088-8.192 29.696-20.48 6.144-16.384-2.048-34.816-18.432-41.472-67.584-25.6-125.952-70.144-170.496-128h114.176c13.824 27.136 29.696 53.248 47.616 77.312 6.144 8.192 15.872 13.312 25.6 13.312 6.656 0 13.312-2.048 18.944-6.144 14.336-10.752 16.896-30.72 6.656-44.544-9.216-12.8-18.432-26.112-26.112-39.424h8.192c16.384 0 30.72-11.776 32.768-27.648 2.56-19.456-12.8-36.352-31.744-36.352h-40.96c-17.92-44.544-28.672-92.16-31.744-140.288h39.424c17.92 0 31.744-14.336 31.744-31.744 0-17.92-14.336-31.744-31.744-31.744h-39.424c3.584-47.616 13.824-94.208 31.744-138.752h339.968c16.896 0 32.256-12.8 33.28-29.696 1.024-16.384-10.24-30.72-26.112-33.792-25.6-54.272-60.928-102.4-103.936-143.36 95.232 22.016 177.664 78.848 232.96 160.256 9.216 13.312 26.624 18.944 40.96 11.776 17.408-9.216 23.04-31.232 12.288-47.104zM188.928 697.344c-22.016-44.544-34.816-91.648-38.912-140.288h138.24c2.56 48.128 12.288 95.232 27.648 140.288H188.928z m99.328-204.288h-138.24c4.096-48.64 17.408-95.232 38.912-138.752h126.976c-15.36 45.056-24.576 91.648-27.648 138.752z m54.272-202.752H228.864c54.272-71.168 131.072-120.832 217.088-141.312-41.984 40.96-76.8 88.576-103.424 141.312z m315.392 0H415.744c31.232-52.736 71.68-97.792 120.32-134.656 48.64 36.352 90.624 82.432 121.856 134.656z" p-id="158907"></path><path d="M921.6 545.792c3.072-29.184-5.632-58.368-24.576-81.408-18.944-23.04-45.056-37.376-74.752-39.936-28.672-3.072-57.856 6.144-80.384 24.576l-66.56 56.32c-11.264 9.728-12.8 26.624-3.584 38.4 9.728 11.776 26.624 13.312 38.4 3.584l66.56-55.296 4.096-3.072c10.752-7.168 23.552-10.752 36.352-9.216 14.336 2.048 27.136 9.216 36.352 20.48 18.944 23.552 16.384 57.856-6.144 78.336l-62.464 52.736c-12.8 10.752-14.848 30.208-4.096 43.008 2.56 3.072-0.512 7.68-4.608 6.144-15.36-6.144-33.28 1.536-39.424 16.896l-31.744 78.336-2.048 4.608c-5.632 11.776-15.36 20.992-27.648 25.6-13.824 5.632-28.672 6.144-42.496 0.512-13.824-5.632-24.576-16.384-30.208-29.696-5.632-13.824-5.632-29.184 0-43.008l32.256-81.408c5.632-13.824-1.024-29.696-14.848-35.328-13.824-5.632-29.696 1.024-35.328 15.36l-32.256 81.408-2.048 6.144c-17.92 54.784 9.728 114.688 62.976 136.704 0.512 0 0.512 0 1.024 0.512 23.04 9.216 48.64 10.24 72.192 3.072 4.096-1.024 7.68-2.048 11.776-3.584 26.624-11.264 48.128-33.28 58.368-60.416l40.448-104.448c0-0.512 0.512-1.024 1.024-1.536l84.48-71.168 4.608-4.096c19.456-18.432 31.744-43.008 34.304-69.12z" p-id="158908"></path><path d="M807.424 536.576c-9.728-11.776-27.136-13.312-38.4-3.584l-26.624 22.016c-11.776 9.728-13.312 26.624-3.584 38.4 9.728 11.776 26.624 13.312 38.4 3.584l26.624-22.016c11.264-9.728 12.8-26.624 3.584-38.4zM664.064 735.232c13.824 5.632 29.696-1.024 35.328-14.848l12.8-32.256c5.632-13.824-1.024-29.696-15.36-35.328-13.824-5.632-29.696 1.024-35.328 15.36l-12.8 32.256c-5.632 13.824 1.536 29.184 15.36 34.816z" p-id="158909"></path></svg>