<?xml version="1.0" standalone="no"?><!DOCTYPE svg PUBLIC "-//W3C//DTD SVG 1.1//EN" "http://www.w3.org/Graphics/SVG/1.1/DTD/svg11.dtd"><svg t="1756614658024" class="icon" viewBox="0 0 1024 1024" version="1.1" xmlns="http://www.w3.org/2000/svg" p-id="158742" xmlns:xlink="http://www.w3.org/1999/xlink" width="32" height="32"><path d="M807.936 641.536c-80.896 0-146.944 66.048-146.944 146.944s66.048 146.944 146.944 146.944 146.944-66.048 146.944-146.944-65.536-146.944-146.944-146.944z m0 241.152c-51.712 0-94.208-41.984-94.208-94.208 0-51.712 41.984-94.208 94.208-94.208 51.712 0 94.208 41.984 94.208 94.208s-41.984 94.208-94.208 94.208z" p-id="158743"></path><path d="M858.624 762.368h-101.376c-14.336 0-26.624 12.288-26.624 26.624s12.288 26.624 26.624 26.624h101.376c14.336 0 26.624-12.288 26.624-26.624 0-14.848-11.776-26.624-26.624-26.624z" p-id="158744"></path><path d="M301.056 400.384c-17.92 0-32.256 14.336-32.256 32.256v213.504c0 17.92 14.336 32.256 32.256 32.256s32.256-14.336 32.256-32.256V432.128c-0.512-17.408-14.848-31.744-32.256-31.744zM621.056 442.88c-17.92 0-32.256 14.336-32.256 32.256v170.496c0 17.92 14.336 32.256 32.256 32.256s32.256-14.336 32.256-32.256V475.136c-0.512-17.92-14.848-32.256-32.256-32.256z" p-id="158745"></path><path d="M202.752 821.248c-29.696 0-53.248-24.064-53.248-53.248V256c0-29.696 24.064-53.248 53.248-53.248h618.496c29.696 0 53.248 24.064 53.248 53.248v288.256c0 17.92 14.336 31.744 32.256 31.744s32.256-14.336 32.256-31.744V256c0-65.024-52.736-117.248-117.248-117.248H202.752c-65.024 0-117.248 52.736-117.248 117.248v512c0 65.024 52.736 117.248 117.248 117.248h362.496c17.92 0 31.744-14.336 31.744-32.256s-14.336-32.256-31.744-32.256H202.752z" p-id="158746"></path><path d="M460.8 314.88c-17.92 0-32.256 14.336-32.256 32.256v298.496c0 17.92 14.336 32.256 32.256 32.256s32.256-14.336 32.256-32.256V347.136c0-17.92-14.336-32.256-32.256-32.256z" p-id="158747"></path></svg>