<?xml version="1.0" standalone="no"?><!DOCTYPE svg PUBLIC "-//W3C//DTD SVG 1.1//EN" "http://www.w3.org/Graphics/SVG/1.1/DTD/svg11.dtd"><svg t="1768639738671" class="icon" viewBox="0 0 1024 1024" version="1.1" xmlns="http://www.w3.org/2000/svg" p-id="26887" xmlns:xlink="http://www.w3.org/1999/xlink" width="32" height="32"><path d="M357.376 770.56H230.912c-10.752 0-19.968-8.704-19.968-19.968V527.36h148.992c17.92 0 31.744-14.336 31.744-32.256s-14.336-32.256-31.744-32.256h-148.48V382.976c0-17.92-14.336-32.256-32.256-32.256s-32.256 14.336-32.256 32.256v387.584c0 35.328 28.672 64.512 64.512 64.512h145.408c16.896 0 32.256-12.8 33.28-29.696 1.536-19.456-14.848-34.816-32.768-34.816zM804.864 856.064h-257.536c-39.936 0-72.704-32.768-72.704-72.704 0-39.936 32.768-72.704 72.704-72.704h257.536c39.936 0 72.704 32.768 72.704 72.704 0 39.936-32.256 72.704-72.704 72.704zM804.864 567.808h-257.536c-39.936 0-72.704-32.768-72.704-72.704 0-39.936 32.768-72.704 72.704-72.704h257.536c39.936 0 72.704 32.768 72.704 72.704 0 39.936-32.256 72.704-72.704 72.704zM826.88 243.712H198.144c-28.16 0-51.2-23.04-51.2-51.2s23.04-51.2 51.2-51.2h628.224c28.16 0 51.2 23.04 51.2 51.2s-22.528 51.2-50.688 51.2z" p-id="26888"></path></svg>