<?xml version="1.0" standalone="no"?><!DOCTYPE svg PUBLIC "-//W3C//DTD SVG 1.1//EN" "http://www.w3.org/Graphics/SVG/1.1/DTD/svg11.dtd"><svg t="1768580694400" class="icon" viewBox="0 0 1024 1024" version="1.1" xmlns="http://www.w3.org/2000/svg" p-id="26918" xmlns:xlink="http://www.w3.org/1999/xlink" width="32" height="32"><path d="M381.952 117.248v53.248c0 17.92 14.336 31.744 31.744 31.744h34.304c17.92 0 31.744-14.336 31.744-31.744V117.248c0-17.92 14.336-31.744 31.744-31.744 17.92 0 31.744 14.336 31.744 31.744v53.248c0 17.92 14.336 31.744 31.744 31.744h34.304c17.92 0 31.744-14.336 31.744-31.744V117.248c0-17.92 14.336-31.744 31.744-31.744 17.92 0 31.744 14.336 31.744 31.744v53.248c0 17.92 14.336 31.744 32.256 31.744h45.056c17.92 0 31.744 14.336 31.744 31.744V281.6c0 17.92 14.336 31.744 32.256 31.744h52.224c17.92 0 32.256 14.336 32.256 31.744 0 17.92-14.336 31.744-32.256 31.744h-52.224c-17.92 0-31.744 14.336-31.744 31.744v34.304c0 17.92 14.336 31.744 31.744 31.744h52.224c17.92 0 31.744 14.336 31.744 31.744 0 17.92-14.336 31.744-31.744 31.744h-52.224c-17.92 0-31.744 14.336-31.744 31.744v34.304c0 17.92 14.336 31.744 31.744 31.744h52.224c17.92 0 31.744 14.336 31.744 31.744 0 17.92-14.336 31.744-31.744 31.744h-52.224c-17.92 0-31.744 14.336-31.744 31.744v48.128c0 17.92-14.336 31.744-32.256 31.744h-45.056c-17.92 0-31.744 14.336-31.744 31.744V896c0 17.92-14.336 31.744-32.256 31.744s-31.744-14.336-31.744-31.744v-53.248c0-17.92-14.336-31.744-31.744-31.744h-34.304c-17.92 0-31.744 14.336-31.744 31.744V896c0 17.92-14.336 31.744-31.744 31.744-17.92 0-31.744-14.336-31.744-31.744v-53.248c0-17.92-14.336-31.744-31.744-31.744h-34.304c-17.92 0-31.744 14.336-31.744 31.744V896c0 17.92-14.336 31.744-31.744 31.744-17.92 0-31.744-14.336-31.744-31.744v-53.248c0-17.92-14.336-31.744-31.744-31.744h-49.664c-17.92 0-31.744-14.336-31.744-31.744v-48.128c0-17.92-14.336-31.744-31.744-31.744h-56.32c-17.92 0-31.744-14.336-31.744-31.744 0-17.92 14.336-31.744 31.744-31.744h54.784c17.92 0 31.744-14.336 31.744-31.744v-34.304c0-17.92-14.336-31.744-31.744-31.744H117.248c-17.92 0-31.744-14.336-31.744-31.744 0-17.92 14.336-31.744 31.744-31.744h54.784c17.92 0 31.744-14.336 31.744-31.744V409.6c0-17.92-14.336-31.744-31.744-31.744H117.248c-17.92 0-31.744-14.336-31.744-31.744 0-17.92 14.336-31.744 31.744-31.744h54.784c17.92 0 31.744-14.336 31.744-31.744V235.52c0-17.92 14.336-31.744 31.744-31.744h49.664c17.92 0 31.744-14.336 31.744-31.744V117.248c0-17.92 14.336-31.744 31.744-31.744 18.944 0 33.28 14.336 33.28 31.744z m337.408 149.504H300.032c-17.92 0-31.744 14.336-31.744 31.744v419.328c0 17.92 14.336 31.744 31.744 31.744h419.328c17.92 0 31.744-14.336 31.744-31.744V298.496c0.512-17.408-13.824-31.744-31.744-31.744z m-66.048 151.04V599.04c0 29.184-23.552 53.248-53.248 53.248H419.328c-29.184 0-53.248-23.552-53.248-53.248V417.792c0-29.184 23.552-53.248 53.248-53.248h180.736c29.696 0.512 53.248 24.064 53.248 53.248z m-96.256 11.264H462.336c-17.92 0-31.744 14.336-31.744 31.744v94.72c0 17.92 14.336 31.744 31.744 31.744h94.72c17.92 0 31.744-14.336 31.744-31.744V460.8c0.512-17.408-13.824-31.744-31.744-31.744z" p-id="26919"></path></svg>