<?xml version="1.0" standalone="no"?><!DOCTYPE svg PUBLIC "-//W3C//DTD SVG 1.1//EN" "http://www.w3.org/Graphics/SVG/1.1/DTD/svg11.dtd"><svg t="1768580943913" class="icon" viewBox="0 0 1024 1024" version="1.1" xmlns="http://www.w3.org/2000/svg" p-id="28043" xmlns:xlink="http://www.w3.org/1999/xlink" width="32" height="32"><path d="M203.264 495.616c6.144 6.144 14.336 9.216 22.528 9.216 8.192 0 16.384-3.072 22.528-9.216l45.056-45.056 45.056 45.056c6.144 6.144 14.336 9.216 22.528 9.216 8.192 0 16.384-3.072 22.528-9.216 12.288-12.288 12.288-32.768 0-45.056l-45.056-45.056 45.056-45.056c12.288-12.288 12.288-32.768 0-45.056-12.288-12.288-32.768-12.288-45.056 0l-45.056 45.056-45.056-45.056c-12.288-12.288-32.768-12.288-45.056 0-12.288 12.288-12.288 32.768 0 45.056l45.056 45.056-45.056 45.056c-12.288 12.288-12.288 32.768 0 45.056z m359.936 46.592c22.016-22.016 34.304-51.712 34.304-82.944v-112.64c0-17.92-14.336-32.256-32.256-32.256s-32.256 14.336-32.256 32.256v112.64c0 13.824-5.632 27.648-15.872 37.888l-176.128 176.128c-19.456-10.24-41.984-14.848-66.048-12.288-54.784 5.632-99.328 50.176-104.448 105.472-6.656 73.728 54.784 135.168 128 128 54.272-5.12 98.304-48.128 104.96-102.4 3.584-27.648-3.072-53.76-15.872-75.264l175.616-174.592z m-274.944 288.256c-29.184 0-53.248-24.064-53.248-53.248s24.064-53.248 53.248-53.248 53.248 24.064 53.248 53.248-23.552 53.248-53.248 53.248z m427.52-31.744l45.056-45.056c12.288-12.288 12.288-32.768 0-45.056-12.288-12.288-32.768-12.288-45.056 0l-45.056 45.056-45.056-45.056c-12.288-12.288-32.768-12.288-45.056 0-12.288 12.288-12.288 32.768 0 45.056l45.056 45.056-45.056 45.056c-12.288 12.288-12.288 32.768 0 45.056 6.144 6.144 14.336 9.216 22.528 9.216 8.192 0 16.384-3.072 22.528-9.216l45.056-45.056 45.056 45.056c6.144 6.144 14.336 9.216 22.528 9.216s16.384-3.072 22.528-9.216c12.288-12.288 12.288-32.768 0-45.056l-45.056-45.056zM584.704 138.752c-9.728-10.752-26.624-10.752-35.84 0L476.16 221.696c-13.312 15.36-2.56 39.424 17.92 39.424h145.408c20.48 0 31.232-24.064 17.92-39.424l-72.704-82.944zM834.56 478.208l45.056-45.056c12.288-12.288 12.288-32.768 0-45.056-12.288-12.288-32.768-12.288-45.056 0l-45.056 45.056-45.056-45.056c-12.288-12.288-32.768-12.288-45.056 0-12.288 12.288-12.288 32.768 0 45.056l45.056 45.056-45.056 45.056c-12.288 12.288-12.288 32.768 0 45.056 6.144 6.144 14.336 9.216 22.528 9.216 8.192 0 16.384-3.072 22.528-9.216l45.056-45.056 45.056 45.056c6.144 6.144 14.336 9.216 22.528 9.216 8.192 0 16.384-3.072 22.528-9.216 12.288-12.288 12.288-32.768 0-45.056l-45.056-45.056z" p-id="28044"></path></svg>