<?xml version="1.0" standalone="no"?><!DOCTYPE svg PUBLIC "-//W3C//DTD SVG 1.1//EN" "http://www.w3.org/Graphics/SVG/1.1/DTD/svg11.dtd"><svg t="1768580833876" class="icon" viewBox="0 0 1024 1024" version="1.1" xmlns="http://www.w3.org/2000/svg" p-id="27466" xmlns:xlink="http://www.w3.org/1999/xlink" width="32" height="32"><path d="M246.272 494.08c5.632-32.256-16.384-39.424-20.992-41.472-33.792-14.336-55.808-49.664-55.808-94.208 3.072-57.344 41.472-101.888 95.232-102.4 17.92 0 33.28-15.36 32.768-33.792-1.024-18.432-16.384-30.208-31.744-30.208-89.6 0-156.672 70.656-156.672 166.4 0 51.2 19.456 96.256 51.2 128-60.928 28.672-105.472 79.872-118.272 143.872-3.072 15.872 6.656 35.328 25.6 38.4h6.656c15.872 0 28.672-9.728 31.744-25.6 11.264-54.272 50.688-93.184 109.056-110.08 6.144-1.536 25.6-6.656 31.232-38.912zM777.728 494.08c-5.632-32.256 16.384-39.424 20.992-41.472 33.792-14.336 55.808-49.664 55.808-94.208-3.072-57.344-41.472-101.888-95.232-102.4-17.92 0-33.28-15.36-32.768-33.792 1.024-18.432 16.384-30.208 31.744-30.208 89.6 0 156.672 70.656 156.672 166.4 0 51.2-19.456 96.256-51.2 128 60.928 28.672 105.472 79.872 118.272 143.872 3.072 15.872-6.656 35.328-25.6 38.4h-6.656c-15.872 0-28.672-9.728-32.256-25.6-11.264-54.272-50.688-93.184-109.056-110.08-5.632-1.536-25.088-6.656-30.72-38.912zM625.152 611.328c67.072-38.4 115.2-112.128 115.2-195.072 0-120.832-92.672-217.6-211.968-223.744-126.976-6.656-235.52 95.744-236.032 223.232 0 83.456 44.544 157.184 115.2 196.096-89.6 35.328-156.672 115.2-179.2 211.456-3.072 15.872 6.656 35.328 25.6 38.4h6.656c15.872 0 28.672-9.728 32.256-25.6 22.528-105.472 115.2-182.272 224.256-182.272s201.728 76.8 224.256 182.272c3.072 15.872 19.456 28.672 38.4 25.6 15.872-3.072 28.672-19.456 25.6-38.4-23.552-96.768-90.624-176.64-180.224-211.968z m-140.288-38.4c-57.856-10.24-115.2-67.584-125.44-125.44C338.432 332.8 433.152 238.08 547.84 259.072c57.856 10.24 115.2 67.584 125.44 125.44 20.992 114.688-73.728 209.408-188.416 188.416z" p-id="27467"></path></svg>